<?xml version="1.0" encoding="utf-8"?>
<!-- Generator: Adobe Illustrator 23.1.0, SVG Export Plug-In . SVG Version: 6.00 Build 0)  -->
<svg version="1.1" id="Layer_1" xmlns="http://www.w3.org/2000/svg" xmlns:xlink="http://www.w3.org/1999/xlink" x="0px" y="0px"
	 viewBox="0 0 307.7 238.1" style="enable-background:new 0 0 307.7 238.1;" xml:space="preserve">
<style type="text/css">
	.st0{fill:#FFFFFF;}
</style>
<title>로고2</title>
<path class="st0" d="M65.2,124.1c-0.4-3.3-0.4-6.7,0-10c-0.2,1.6-0.2,3.3-0.2,5S65.1,122.4,65.2,124.1z"/>
<path class="st0" d="M120,24c-3.9,0-7.7,0.2-11.6,0.7l-1.7-9.9c8.8-1.1,17.8-1.1,26.6,0l-1.7,9.9C127.7,24.3,123.9,24.1,120,24z"/>
<path class="st0" d="M163.1,203.7l5,8.7c-7.9,4.1-16.3,7.2-25,9.1l-1.7-9.9C148.9,209.9,156.2,207.2,163.1,203.7z"/>
<path class="st0" d="M98.6,211.6l-1.7,9.9c-8.7-2-17.1-5-25-9.1l5-8.7C83.8,207.2,91.1,209.9,98.6,211.6z"/>
<path class="st0" d="M76.9,34.4l-5-8.7c7.9-4.1,16.3-7.2,25-9.1l1.7,9.9C91.1,28.2,83.8,30.9,76.9,34.4z"/>
<path class="st0" d="M120,214.1c3.9,0,7.7-0.2,11.6-0.7l1.7,9.9c-8.8,1.1-17.8,1.1-26.6,0l1.7-9.9C112.3,213.8,116.1,214,120,214.1z
	"/>
<path class="st0" d="M141.4,26.5l1.7-9.9c8.7,2,17.1,5,25,9.1l-5,8.7C156.2,30.9,148.9,28.2,141.4,26.5z"/>
<path class="st0" d="M25.1,114.1h-10c0.4-8.9,2-17.7,4.6-26.2l9.4,3.4C26.9,98.7,25.5,106.3,25.1,114.1z"/>
<path class="st0" d="M171.8,39.4l5-8.7c7.5,4.8,14.3,10.6,20.3,17.1l-7.7,6.4C184.2,48.6,178.2,43.6,171.8,39.4z"/>
<path class="st0" d="M189.4,183.8l7.7,6.4c-6,6.5-12.9,12.3-20.3,17.1l-5-8.7C178.2,194.5,184.2,189.5,189.4,183.8z"/>
<path class="st0" d="M50.6,54.3l-7.7-6.4c6-6.5,12.9-12.3,20.3-17.1l5,8.7C61.8,43.6,55.8,48.6,50.6,54.3z"/>
<path class="st0" d="M25.1,124.1c0.4,7.7,1.7,15.4,4,22.8l-9.4,3.4c-2.6-8.5-4.2-17.3-4.6-26.2H25.1z"/>
<path class="st0" d="M32.6,81.9l-9.4-3.4c3.4-8.2,7.9-15.9,13.3-23l7.7,6.4C39.5,68.1,35.6,74.8,32.6,81.9z"/>
<path class="st0" d="M44.1,176.2l-7.7,6.4c-5.4-7.1-9.9-14.8-13.3-23l9.4-3.4C35.6,163.3,39.5,170,44.1,176.2z"/>
<path class="st0" d="M68.3,198.7l-5,8.7c-7.5-4.8-14.3-10.6-20.3-17.1l7.7-6.4C55.8,189.5,61.8,194.5,68.3,198.7z"/>
<path class="st0" d="M151,151.6l7.7,6.5c-2.2,2.2-4.5,4.1-7,5.9l-5-8.7C148.2,154.1,149.6,152.9,151,151.6z"/>
<path class="st0" d="M82.5,144l-7.7,6.4c-1.7-2.5-3.3-5.2-4.6-7.9l9.4-3.5C80.5,140.7,81.5,142.4,82.5,144z"/>
<path class="st0" d="M75.3,114.1h-10c0.3-3,0.8-6,1.6-9l9.4,3.4C75.9,110.3,75.5,112.2,75.3,114.1z"/>
<path class="st0" d="M89,86.5L81.3,80c2.2-2.2,4.5-4.1,7-5.9l5,8.7C91.8,83.9,90.4,85.2,89,86.5z"/>
<path class="st0" d="M76.3,129.6l-9.4,3.4c-0.8-3-1.3-6-1.6-9h10C75.5,126,75.8,127.8,76.3,129.6z"/>
<path class="st0" d="M120,164.1c1,0,1.9,0,2.8-0.1l1.7,9.9c-1.5,0.1-3,0.2-4.6,0.2s-3.1-0.1-4.6-0.2l1.8-9.9
	C118.1,164,119,164.1,120,164.1z"/>
<path class="st0" d="M120,74.1c-1,0-1.9,0-2.8,0.1l-1.7-9.9c1.5-0.1,3-0.2,4.6-0.2s3.1,0.1,4.6,0.2l-1.7,9.9
	C121.9,74.1,121,74.1,120,74.1z"/>
<path class="st0" d="M146.7,82.8l5-8.7c2.5,1.8,4.8,3.7,7,5.9l-7.7,6.5C149.6,85.2,148.2,84,146.7,82.8z"/>
<path class="st0" d="M107.3,162.2l-1.7,9.9l-0.8-0.2l0,0c-2.7-0.8-5.2-1.7-7.8-2.8l5-8.7C103.7,161.1,105.5,161.7,107.3,162.2z"/>
<path class="st0" d="M105.6,66.2l1.7,9.7c-1.8,0.6-3.6,1.2-5.3,2l-5-8.7c2.7-1.3,5.5-2.3,8.4-3.1v0.2L105.6,66.2z"/>
<path class="st0" d="M138,160.3l5,8.7h-0.1l0,0c-2.8,1.3-5.6,2.3-8.6,3.1l-1.7-9.9C134.5,161.6,136.3,161,138,160.3z"/>
<path class="st0" d="M93.3,155.3l-5,8.7c-2.5-1.8-4.8-3.7-7-5.9l7.7-6.5C90.4,152.9,91.8,154.1,93.3,155.3z"/>
<path class="st0" d="M143,69.2l-5,8.7c-1.7-0.8-3.5-1.4-5.3-2l1.7-9.9C137.4,66.7,140.2,67.8,143,69.2L143,69.2L143,69.2z"/>
<path class="st0" d="M79.7,99.1l-9.4-3.4c1.3-2.8,2.9-5.4,4.6-7.9l7.7,6.4C81.5,95.7,80.5,97.4,79.7,99.1z"/>
<path class="st0" d="M15.1,124.1H0v-10h15.1c-0.1,1.7-0.1,3.3-0.1,5S15,122.4,15.1,124.1z"/>
<path class="st0" d="M25,119.1c0,1.7,0,3.3,0.1,5h-10c-0.1-1.7-0.1-3.3-0.1-5s0-3.3,0.1-5h10C25,115.7,25,117.4,25,119.1z"/>
<path class="st0" d="M75,119.1c0,1.7,0.1,3.3,0.3,5h-10c-0.2-1.7-0.2-3.3-0.2-5s0.1-3.4,0.2-5h10C75.1,115.7,75,117.4,75,119.1z"/>
<path class="st0" d="M65.2,124.1h-10c-0.2-1.7-0.2-3.3-0.2-5s0.1-3.4,0.2-5h10C64.9,117.4,64.9,120.7,65.2,124.1z"/>
<path class="st0" d="M66.8,105L29.1,91.3c1-3.2,2.1-6.3,3.4-9.4l37.7,13.7C68.8,98.6,67.7,101.8,66.8,105z"/>
<path class="st0" d="M5.5,82.7L9,73.3l14.2,5.2c-1.3,3.1-2.4,6.2-3.4,9.4L5.5,82.7z"/>
<path class="st0" d="M106.3,114.1H91.7l-15.4-5.6c0.8-3.2,1.9-6.4,3.4-9.4l15.4,5.6L106.3,114.1z"/>
<path class="st0" d="M29.1,91.3l-9.4-3.4c1-3.2,2.1-6.3,3.4-9.4l9.4,3.4C31.3,85,30.1,88.1,29.1,91.3z"/>
<path class="st0" d="M79.7,99.1c-1.5,3-2.6,6.1-3.4,9.4l-9.4-3.4c0.9-3.2,2-6.4,3.4-9.4L79.7,99.1z"/>
<polygon class="st0" points="105.4,119.1 91.6,114.1 106.3,114.1 110.2,117.3 "/>
<path class="st0" d="M131.2,128.4l13.7,5l12.5,10.6c-1.9,2.8-4,5.3-6.5,7.6l-12.5-10.5L131.2,128.4z"/>
<path class="st0" d="M215.1,192.4l-6.4,7.6l-11.6-9.8c2.3-2.4,4.4-5,6.4-7.7L215.1,192.4z"/>
<path class="st0" d="M165.1,150.4l30.7,25.8c-2,2.7-4.2,5.2-6.4,7.6l-30.7-25.8C161.1,155.7,163.2,153.1,165.1,150.4z"/>
<path class="st0" d="M24.9,45.7l6.4-7.7l11.6,9.8c-2.3,2.5-4.4,5-6.4,7.7L24.9,45.7z"/>
<path class="st0" d="M195.9,176.2l7.7,6.4c-2,2.7-4.1,5.2-6.4,7.7l-7.7-6.4C191.7,181.4,193.8,178.8,195.9,176.2z"/>
<path class="st0" d="M44.1,61.9l-7.7-6.4c2-2.7,4.1-5.2,6.4-7.7l7.7,6.4C48.3,56.7,46.1,59.3,44.1,61.9z"/>
<path class="st0" d="M157.5,144l7.7,6.4c-1.9,2.7-4.1,5.3-6.4,7.7l-7.7-6.5C153.4,149.3,155.6,146.8,157.5,144z"/>
<path class="st0" d="M82.5,94.1l-7.7-6.4c1.8-2.6,3.9-5.1,6.2-7.4l0.3-0.3l0,0l7.7,6.5C86.6,88.8,84.4,91.4,82.5,94.1z"/>
<path class="st0" d="M74.8,87.7l-7.7-6.4c1.9-2.7,4.1-5.3,6.4-7.7l7.7,6.4L81,80.3C78.7,82.5,76.6,85,74.8,87.7z"/>
<path class="st0" d="M81,80.3l0.3-0.3l0,0L81,80.3z"/>
<polygon class="st0" points="106.3,114.1 95.1,104.7 108.8,109.7 111.3,114.1 "/>
<polygon class="st0" points="133.7,124.1 144.9,133.4 131.2,128.4 128.7,124.1 "/>
<polygon class="st0" points="112.7,116.4 110.2,117.3 106.3,114.1 111.3,114.1 "/>
<polygon class="st0" points="127.3,121.7 129.9,120.8 133.7,124.1 128.7,124.1 "/>
<path class="st0" d="M55.7,17.6l8.7-5l7.6,13.1c-3,1.5-5.8,3.2-8.7,5L55.7,17.6z"/>
<path class="st0" d="M88.3,74.1l-20-34.7c2.8-1.8,5.7-3.5,8.7-5l20,34.7C94,70.5,91,72.2,88.3,74.1z"/>
<path class="st0" d="M112.7,106.4L101.5,97l-8.2-14.2c2.7-2,5.6-3.7,8.7-5l8.2,14.2L112.7,106.4z"/>
<path class="st0" d="M184.3,220.5l-8.7,5l-7.6-13.1c3-1.5,5.9-3.2,8.6-5L184.3,220.5z"/>
<path class="st0" d="M171.8,198.7l5,8.7c-2.8,1.8-5.7,3.5-8.6,5l-5-8.7C166.1,202.2,169,200.5,171.8,198.7z"/>
<path class="st0" d="M68.3,39.4l-5-8.7c2.8-1.8,5.7-3.5,8.7-5l5,8.7C73.9,35.9,71,37.6,68.3,39.4z"/>
<path class="st0" d="M150.5,164.7c-0.6,0.4-1.1,0.7-1.6,1.1c-1,0.6-1.9,1.1-2.9,1.7c-1,0.5-1.9,1-2.9,1.4l-5-8.7c3.1-1.3,6-3,8.7-5
	l5,8.7l0,0l0,0C151.3,164.2,150.9,164.5,150.5,164.7z"/>
<path class="st0" d="M146,167.5c1-0.5,2-1.1,2.9-1.7c0.6-0.3,1.1-0.7,1.6-1.1c0.4-0.3,0.8-0.5,1.1-0.8l5,8.7c-2.7,1.9-5.6,3.6-8.7,5
	l-5-8.6h0.1C144,168.5,145,168,146,167.5z"/>
<path class="st0" d="M143,168.9L143,168.9L143,168.9L143,168.9L143,168.9z"/>
<path class="st0" d="M151.6,164L151.6,164c-0.4,0.3-0.8,0.5-1.1,0.8C150.9,164.5,151.3,164.2,151.6,164z"/>
<path class="st0" d="M143.1,169L143.1,169c1-0.4,2-0.9,2.9-1.4C145,168,144,168.5,143.1,169z"/>
<path class="st0" d="M93.3,82.8l-5-8.7c2.7-1.9,5.6-3.6,8.7-5l5,8.7C98.9,79.2,96,80.9,93.3,82.8z"/>
<polygon class="st0" points="113.6,111.4 108.8,109.7 101.5,97 112.7,106.4 "/>
<polygon class="st0" points="131.2,128.4 138.5,141.1 127.3,131.7 126.4,126.7 "/>
<polygon class="st0" points="126,124.1 128.7,124.1 131.2,128.4 126.4,126.7 "/>
<polygon class="st0" points="114,114.1 111.3,114.1 108.8,109.7 113.6,111.4 "/>
<polygon class="st0" points="127.3,121.7 128.7,124.1 126,124.1 125.7,122.3 "/>
<polygon class="st0" points="112.7,116.4 111.3,114.1 114,114.1 114.3,115.8 "/>
<path class="st0" d="M134.4,172.1l7,39.5c-3.2,0.8-6.5,1.3-9.9,1.7l-7-39.5C127.9,173.6,131.2,173,134.4,172.1z"/>
<path class="st0" d="M94.2,1.7l9.8-1.7l2.6,14.9c-3.3,0.4-6.6,1-9.8,1.7L94.2,1.7z"/>
<path class="st0" d="M122.5,133.4l7.3,12.7l2.8,16.1c-3.2,0.9-6.5,1.5-9.8,1.7l-2.8-16.1L122.5,133.4z"/>
<path class="st0" d="M145.8,236.4l-9.9,1.7l-2.6-14.9c3.3-0.4,6.6-1,9.9-1.7L145.8,236.4z"/>
<path class="st0" d="M141.4,211.6l1.7,9.9c-3.2,0.7-6.5,1.3-9.9,1.7l-1.7-9.9C134.9,212.9,138.2,212.4,141.4,211.6z"/>
<path class="st0" d="M98.6,26.5l-1.7-9.9c3.2-0.7,6.5-1.3,9.8-1.7l1.7,9.9C105.1,25.2,101.9,25.7,98.6,26.5z"/>
<path class="st0" d="M132.7,162.2l1.7,9.9c-3.2,0.9-6.5,1.5-9.8,1.7l-1.7-9.8C126.2,163.8,129.5,163.2,132.7,162.2z"/>
<path class="st0" d="M107.3,75.9l-1.7-9.7c3.1-0.9,6.4-1.5,9.7-1.7v-0.2h0.2l1.7,9.9C113.8,74.4,110.5,74.9,107.3,75.9z"/>
<path class="st0" d="M105.4,66l-1.7-9.7c3.2-0.9,6.5-1.5,9.8-1.7l1.7,9.6c-3.3,0.3-6.5,0.9-9.7,1.8H105.4z"/>
<path class="st0" d="M105.6,66.2h-0.2V66h0.2V66.2z"/>
<path class="st0" d="M105.6,66.2V66c3.2-0.9,6.4-1.4,9.7-1.7v0.2C112,64.7,108.8,65.3,105.6,66.2z"/>
<polygon class="st0" points="112.7,106.4 110.2,92 117.5,104.7 116.6,109.7 "/>
<polygon class="st0" points="127.3,131.7 129.9,146.1 122.5,133.4 123.4,128.4 "/>
<polygon class="st0" points="123.9,125.8 126.4,126.7 127.3,131.7 123.4,128.4 "/>
<polygon class="st0" points="116.1,112.3 113.6,111.4 112.7,106.4 116.6,109.7 "/>
<polygon class="st0" points="115.8,114.1 114,114.1 113.6,111.4 116.1,112.3 "/>
<polygon class="st0" points="126,124.1 126.4,126.7 123.9,125.8 124.2,124.1 "/>
<polygon class="st0" points="115.6,115.3 114.3,115.8 114,114.1 115.8,114.1 "/>
<polygon class="st0" points="124.4,122.8 125.7,122.3 126,124.1 124.2,124.1 "/>
<path class="st0" d="M122.5,104.7L120,90.3l2.8-16.1c3.3,0.2,6.6,0.8,9.9,1.7L129.9,92L122.5,104.7z"/>
<path class="st0" d="M104.1,238.1l-9.8-1.7l2.6-14.9c3.2,0.7,6.5,1.3,9.8,1.7L104.1,238.1z"/>
<path class="st0" d="M124.6,64.3l7-39.5c3.3,0.4,6.6,1,9.9,1.7l-7,39.5C131.2,65.1,127.9,64.5,124.6,64.3z"/>
<path class="st0" d="M135.9,0l9.9,1.7l-2.6,14.9c-3.2-0.7-6.5-1.3-9.9-1.7L135.9,0z"/>
<path class="st0" d="M131.6,24.8l1.7-9.9c3.3,0.4,6.6,1,9.9,1.7l-1.7,9.9C138.1,25.7,134.9,25.2,131.6,24.8z"/>
<path class="st0" d="M108.4,213.3l-1.7,9.9c-3.3-0.4-6.6-1-9.8-1.7l1.7-9.9C101.8,212.4,105.1,212.9,108.4,213.3z"/>
<path class="st0" d="M122.8,74.1l1.7-9.9c3.3,0.3,6.6,0.9,9.8,1.8l-1.7,9.9C129.5,75,126.2,74.4,122.8,74.1z"/>
<path class="st0" d="M105.6,172.1l1.7-9.9c3.2,0.9,6.5,1.5,9.8,1.7l-1.8,9.9l-0.8-0.1v-0.2C111.5,173.4,108.5,172.9,105.6,172.1z"/>
<path class="st0" d="M114.6,173.8l-1.7,9.7c-3.3-0.3-6.6-0.9-9.8-1.7l1.8-9.9c0.3,0.1,0.5,0.2,0.8,0.2
	C108.5,172.9,111.5,173.5,114.6,173.8z"/>
<path class="st0" d="M105.6,172.1L105.6,172.1c-0.3,0-0.6-0.1-0.8-0.2l0,0L105.6,172.1z"/>
<path class="st0" d="M105.6,172.1c2.9,0.8,6,1.3,9,1.5v0.2C111.5,173.5,108.5,172.9,105.6,172.1L105.6,172.1z"/>
<polygon class="st0" points="117.5,104.7 120,90.3 122.5,104.7 120,109.1 "/>
<polygon class="st0" points="122.5,133.4 120,147.8 117.5,133.4 120,129 "/>
<polygon class="st0" points="121.3,126.7 123.4,128.4 122.5,133.4 120,129 "/>
<polygon class="st0" points="118.7,111.4 116.6,109.7 117.5,104.7 120,109.1 "/>
<polygon class="st0" points="116.1,112.3 116.6,109.7 118.7,111.4 117.8,112.9 "/>
<polygon class="st0" points="123.9,125.8 123.4,128.4 121.3,126.7 122.2,125.2 "/>
<polygon class="st0" points="122.9,124.1 124.2,124.1 123.9,125.8 122.2,125.2 "/>
<polygon class="st0" points="117.1,114.1 115.8,114.1 116.1,112.3 117.8,112.9 "/>
<polygon class="st0" points="124.4,122.8 124.2,124.1 122.9,124.1 123.4,123.1 "/>
<polygon class="st0" points="116.6,115 115.6,115.3 115.8,114.1 117.1,114.1 "/>
<path class="st0" d="M97,169l-20,34.7c-3-1.5-5.9-3.2-8.7-5l20-34.7C91,165.9,94,167.6,97,169z"/>
<path class="st0" d="M175.7,12.6l8.7,5l-7.6,13.1c-2.8-1.8-5.7-3.5-8.6-5L175.7,12.6z"/>
<path class="st0" d="M112.7,131.7l-2.5,14.4l-8.2,14.2c-3.1-1.3-6-3-8.7-5l8.2-14.2L112.7,131.7z"/>
<path class="st0" d="M64.3,225.5l-8.7-5l7.6-13.1c2.8,1.8,5.7,3.5,8.7,5L64.3,225.5z"/>
<path class="st0" d="M163.1,34.4l5-8.7c3,1.5,5.9,3.2,8.6,5l-5,8.7C169,37.6,166.1,35.9,163.1,34.4z"/>
<path class="st0" d="M76.9,203.7l-5,8.7c-3-1.5-5.8-3.2-8.7-5l5-8.7C71,200.5,73.9,202.2,76.9,203.7z"/>
<path class="st0" d="M102,160.3l-5,8.7c-3-1.4-5.9-3.1-8.7-5l5-8.7C96,157.3,98.9,158.9,102,160.3z"/>
<path class="st0" d="M138,77.8l5-8.7c1,0.4,2,0.9,2.9,1.4s2,1.1,2.9,1.7c0.6,0.3,1.1,0.7,1.6,1.1c0.4,0.3,0.8,0.5,1.1,0.8l0,0l0,0
	l-5,8.7C143.9,80.9,141,79.2,138,77.8z"/>
<path class="st0" d="M148.9,72.3c-0.9-0.6-1.9-1.2-2.9-1.7s-1.9-1-2.9-1.5H143l5-8.7c3,1.4,5.9,3.1,8.7,5l-5,8.7
	c-0.4-0.3-0.8-0.5-1.1-0.8C150,73,149.4,72.6,148.9,72.3z"/>
<path class="st0" d="M143,69.2L143,69.2L143,69.2L143,69.2z"/>
<path class="st0" d="M150.5,73.4c0.4,0.3,0.8,0.5,1.1,0.8l0,0C151.3,73.9,150.9,73.6,150.5,73.4z"/>
<path class="st0" d="M146,70.6c-1-0.5-1.9-1-2.9-1.4l0,0C144,69.6,145,70.1,146,70.6z"/>
<polygon class="st0" points="117.5,133.4 110.2,146.1 112.7,131.7 116.6,128.4 "/>
<polygon class="st0" points="122.5,104.7 129.9,92 127.3,106.4 123.4,109.7 "/>
<polygon class="st0" points="118.7,126.7 120,129 117.5,133.4 116.6,128.4 "/>
<polygon class="st0" points="121.3,111.4 120,109.1 122.5,104.7 123.4,109.7 "/>
<polygon class="st0" points="121.3,126.7 120,129 118.7,126.7 120,125.6 "/>
<polygon class="st0" points="118.7,111.4 120,109.1 121.3,111.4 120,112.5 "/>
<polygon class="st0" points="119,113.4 117.8,112.9 118.7,111.4 120,112.5 "/>
<polygon class="st0" points="121,124.7 122.2,125.2 121.3,126.7 120,125.6 "/>
<polygon class="st0" points="122.9,124.1 122.2,125.2 121,124.7 121.8,124.1 "/>
<polygon class="st0" points="117.1,114.1 117.8,112.9 119,113.4 118.2,114.1 "/>
<polygon class="st0" points="117.5,114.7 116.6,115 117.1,114.1 118.2,114.1 "/>
<polygon class="st0" points="122.5,123.4 123.4,123.1 122.9,124.1 121.8,124.1 "/>
<path class="st0" d="M158.7,80l30.7-25.8c2.3,2.4,4.4,5,6.4,7.7l-30.7,25.8C163.2,84.9,161.1,82.4,158.7,80z"/>
<path class="st0" d="M131.2,109.7l7.3-12.7L151,86.5c2.4,2.3,4.6,4.9,6.4,7.7l-12.5,10.5L131.2,109.7z"/>
<path class="st0" d="M208.7,38.1l6.4,7.7l-11.6,9.8c-2-2.7-4.1-5.2-6.4-7.7L208.7,38.1z"/>
<path class="st0" d="M31.3,200l-6.4-7.7l11.6-9.8c2,2.7,4.1,5.2,6.4,7.7L31.3,200z"/>
<path class="st0" d="M189.4,54.3l7.7-6.4c2.3,2.5,4.4,5,6.4,7.7l-7.7,6.4C193.8,59.3,191.7,56.7,189.4,54.3z"/>
<path class="st0" d="M50.6,183.8l-7.7,6.4c-2.3-2.4-4.4-5-6.4-7.7l7.7-6.4C46.1,178.8,48.3,181.4,50.6,183.8z"/>
<path class="st0" d="M89,151.6l-7.7,6.5c-2.4-2.4-4.5-4.9-6.4-7.7l7.7-6.4C84.4,146.8,86.6,149.3,89,151.6z"/>
<path class="st0" d="M81.3,158.1l-7.7,6.5c-2.4-2.4-4.5-4.9-6.4-7.7l7.7-6.4C76.7,153.2,78.9,155.8,81.3,158.1z"/>
<path class="st0" d="M151,86.5l7.7-6.5c2.4,2.4,4.5,4.9,6.4,7.7l-7.7,6.4C155.6,91.4,153.4,88.8,151,86.5z"/>
<polygon class="st0" points="127.3,106.4 138.5,97 131.2,109.7 126.4,111.4 "/>
<polygon class="st0" points="112.7,131.7 101.5,141.1 108.8,128.4 113.6,126.7 "/>
<polygon class="st0" points="116.1,125.8 116.6,128.4 112.7,131.7 113.6,126.7 "/>
<polygon class="st0" points="123.9,112.3 123.4,109.7 127.3,106.4 126.4,111.4 "/>
<polygon class="st0" points="118.7,126.7 116.6,128.4 116.1,125.8 117.8,125.2 "/>
<polygon class="st0" points="121.3,111.4 123.4,109.7 123.9,112.3 122.2,112.9 "/>
<polygon class="st0" points="119,124.7 120,125.6 118.7,126.7 117.8,125.2 "/>
<polygon class="st0" points="121,113.4 120,112.5 121.3,111.4 122.2,112.9 "/>
<polygon class="st0" points="121,124.7 120,125.6 119,124.7 120,124.4 "/>
<polygon class="st0" points="119,113.4 120,112.5 121,113.4 120,113.7 "/>
<polygon class="st0" points="120.9,124.1 121.8,124.1 121,124.7 120,124.4 "/>
<polygon class="st0" points="119.1,114.1 118.2,114.1 119,113.4 120,113.7 "/>
<polygon class="st0" points="121.8,124.1 120.9,124.1 122.5,123.4 "/>
<polygon class="st0" points="118.2,114.1 119.1,114.1 117.5,114.7 "/>
<path class="st0" d="M9,164.8l-3.4-9.4l14.2-5.2c1,3.2,2.1,6.3,3.4,9.4L9,164.8z"/>
<path class="st0" d="M106.3,124.1l-11.2,9.4L79.7,139c-1.5-3-2.6-6.1-3.4-9.4l15.4-5.6L106.3,124.1z"/>
<path class="st0" d="M70.3,142.5l-37.7,13.7c-1.3-3.1-2.5-6.2-3.4-9.4l37.7-13.7C67.7,136.3,68.8,139.5,70.3,142.5z"/>
<path class="st0" d="M32.6,156.2l-9.4,3.4c-1.3-3.1-2.4-6.2-3.4-9.4l9.4-3.4C30.1,150,31.3,153.1,32.6,156.2z"/>
<path class="st0" d="M79.7,139l-9.4,3.4c-1.4-3-2.6-6.2-3.4-9.4l9.4-3.4C77.1,132.9,78.2,136,79.7,139z"/>
<polygon class="st0" points="106.3,124.1 91.6,124.1 105.4,119.1 110.2,120.8 "/>
<polygon class="st0" points="112.2,119.1 110.2,120.8 105.4,119.1 110.2,117.3 "/>
<polygon class="st0" points="127.8,119.1 129.9,120.8 127.3,121.7 126.4,120.2 "/>
<polygon class="st0" points="112.2,119.1 110.2,117.3 112.7,116.4 113.6,117.9 "/>
<polygon class="st0" points="114.6,117.1 113.6,117.9 112.7,116.4 114.3,115.8 "/>
<polygon class="st0" points="125.4,121 126.4,120.2 127.3,121.7 125.7,122.3 "/>
<polygon class="st0" points="114.6,117.1 114.3,115.8 115.6,115.3 115.4,116.4 "/>
<polygon class="st0" points="125.4,121 125.7,122.3 124.4,122.8 124.6,121.7 "/>
<polygon class="st0" points="123.9,122.3 124.6,121.7 124.4,122.8 123.4,123.1 "/>
<polygon class="st0" points="116.1,115.8 115.4,116.4 115.6,115.3 116.6,115 "/>
<polygon class="st0" points="123.4,123.1 122.5,123.4 123.9,122.3 "/>
<polygon class="st0" points="116.1,115.8 116.6,115 117.5,114.7 "/>
<polygon class="st0" points="108.8,128.4 95.1,133.4 106.3,124.1 111.3,124.1 "/>
<polygon class="st0" points="131.2,109.7 144.9,104.7 133.7,114.1 128.7,114.1 "/>
<polygon class="st0" points="112.7,121.7 111.3,124.1 106.3,124.1 110.2,120.8 "/>
<polygon class="st0" points="127.3,116.4 128.7,114.1 133.7,114.1 129.9,117.3 "/>
<polygon class="st0" points="127.3,116.4 129.9,117.3 127.8,119.1 126.4,117.9 "/>
<polygon class="st0" points="112.7,121.7 110.2,120.8 112.2,119.1 113.6,120.2 "/>
<polygon class="st0" points="114.2,119.1 113.6,120.2 112.2,119.1 113.6,117.9 "/>
<polygon class="st0" points="125.8,119.1 126.4,117.9 127.8,119.1 126.4,120.2 "/>
<polygon class="st0" points="125.8,119.1 126.4,120.2 125.4,121 125.2,120 "/>
<polygon class="st0" points="114.2,119.1 113.6,117.9 114.6,117.1 114.8,118.1 "/>
<polygon class="st0" points="124.8,120.8 125.2,120 125.4,121 124.6,121.7 "/>
<polygon class="st0" points="115.2,117.3 114.8,118.1 114.6,117.1 115.4,116.4 "/>
<polygon class="st0" points="124.6,121.7 123.9,122.3 124.8,120.8 "/>
<polygon class="st0" points="115.4,116.4 116.1,115.8 115.2,117.3 "/>
<polygon class="st0" points="126,114.1 126.4,111.4 131.2,109.7 128.7,114.1 "/>
<polygon class="st0" points="114,124.1 113.6,126.7 108.8,128.4 111.3,124.1 "/>
<polygon class="st0" points="126,114.1 128.7,114.1 127.3,116.4 125.7,115.8 "/>
<polygon class="st0" points="114,124.1 111.3,124.1 112.7,121.7 114.3,122.3 "/>
<polygon class="st0" points="114.6,121 114.3,122.3 112.7,121.7 113.6,120.2 "/>
<polygon class="st0" points="125.4,117.1 125.7,115.8 127.3,116.4 126.4,117.9 "/>
<polygon class="st0" points="125.4,117.1 126.4,117.9 125.8,119.1 125.2,118.1 "/>
<polygon class="st0" points="114.6,121 113.6,120.2 114.2,119.1 114.8,120 "/>
<polygon class="st0" points="125.1,119.1 125.2,118.1 125.8,119.1 125.2,120 "/>
<polygon class="st0" points="114.9,119.1 114.8,120 114.2,119.1 114.8,118.1 "/>
<polygon class="st0" points="114.8,118.1 115.2,117.3 114.9,119.1 "/>
<polygon class="st0" points="125.2,120 124.8,120.8 125.1,119.1 "/>
<polygon class="st0" points="123.9,112.3 126.4,111.4 126,114.1 124.2,114.1 "/>
<polygon class="st0" points="116.1,125.8 113.6,126.7 114,124.1 115.8,124.1 "/>
<polygon class="st0" points="124.4,115.3 124.2,114.1 126,114.1 125.7,115.8 "/>
<polygon class="st0" points="115.6,122.8 115.8,124.1 114,124.1 114.3,122.3 "/>
<polygon class="st0" points="115.6,122.8 114.3,122.3 114.6,121 115.4,121.7 "/>
<polygon class="st0" points="124.4,115.3 125.7,115.8 125.4,117.1 124.6,116.4 "/>
<polygon class="st0" points="124.8,117.3 124.6,116.4 125.4,117.1 125.2,118.1 "/>
<polygon class="st0" points="115.2,120.8 115.4,121.7 114.6,121 114.8,120 "/>
<polygon class="st0" points="114.8,120 114.9,119.1 115.2,120.8 "/>
<polygon class="st0" points="125.2,118.1 125.1,119.1 124.8,117.3 "/>
<polygon class="st0" points="122.9,114.1 122.2,112.9 123.9,112.3 124.2,114.1 "/>
<polygon class="st0" points="117.1,124.1 117.8,125.2 116.1,125.8 115.8,124.1 "/>
<polygon class="st0" points="117.1,124.1 115.8,124.1 115.6,122.8 116.6,123.1 "/>
<polygon class="st0" points="122.9,114.1 124.2,114.1 124.4,115.3 123.4,115 "/>
<polygon class="st0" points="123.9,115.8 123.4,115 124.4,115.3 124.6,116.4 "/>
<polygon class="st0" points="116.1,122.3 116.6,123.1 115.6,122.8 115.4,121.7 "/>
<polygon class="st0" points="124.6,116.4 124.8,117.3 123.9,115.8 "/>
<polygon class="st0" points="115.4,121.7 115.2,120.8 116.1,122.3 "/>
<polygon class="st0" points="119,124.7 117.8,125.2 117.1,124.1 118.2,124.1 "/>
<polygon class="st0" points="121,113.4 122.2,112.9 122.9,114.1 121.8,114.1 "/>
<polygon class="st0" points="122.5,114.7 121.8,114.1 122.9,114.1 123.4,115 "/>
<polygon class="st0" points="117.5,123.4 118.2,124.1 117.1,124.1 116.6,123.1 "/>
<polygon class="st0" points="116.6,123.1 116.1,122.3 117.5,123.4 "/>
<polygon class="st0" points="123.4,115 123.9,115.8 122.5,114.7 "/>
<polygon class="st0" points="120.9,114.1 120,113.7 121,113.4 121.8,114.1 "/>
<polygon class="st0" points="119.1,124.1 120,124.4 119,124.7 118.2,124.1 "/>
<polygon class="st0" points="118.2,124.1 117.5,123.4 119.1,124.1 "/>
<polygon class="st0" points="121.8,114.1 122.5,114.7 120.9,114.1 "/>
<polygon class="st0" points="120,113.7 120.9,114.1 119.1,114.1 "/>
<polygon class="st0" points="120,124.4 119.1,124.1 120.9,124.1 "/>
<path class="st0" d="M180,78.8h19.5c8.4,0,12.1,4.1,12.1,9.1c0.1,3.4-2.1,6.4-5.3,7.5c3.4,1.1,6.5,3.7,6.5,8.2
	c0,6.6-5.1,10.5-13.7,10.5H180V78.8z M197.7,92.6c3.8,0,5-1.5,5-3.6c0-2.7-2-3.7-5-3.7h-9.4v7.4H197.7z M188.4,107.7h9.6
	c3.3,0,5.8-1,5.8-4.5c0-2.8-1.9-4.3-5.6-4.3h-9.8L188.4,107.7z"/>
<path class="st0" d="M228.2,78.8v35.2h-8.6V78.8H228.2z"/>
<path class="st0" d="M237.4,78.8h8.6v15.4c5.1-4.7,9.9-9.2,16.6-15.4h10.5L256.6,94l17.4,20.1h-10.6l-12.9-15.4l-4.5,3.8V114h-8.6
	L237.4,78.8z"/>
<path class="st0" d="M305.5,99.2h-19.6v8h21.9l-1,6.8h-29.4V78.8h29.3v6.8h-20.7v6.7h19.6V99.2z"/>
<path class="st0" d="M180.1,118.8h29v6.8h-20.5v8h19.1v6.9h-19.1V154h-8.5V118.8z"/>
<path class="st0" d="M223.6,118.8v35.2H215v-35.2H223.6z"/>
<path class="st0" d="M241.5,125.6h-12.4v-6.8h33.3v6.8H250v28.4h-8.6L241.5,125.6z"/>
</svg>
