<?xml version="1.0" encoding="utf-8"?>
<!-- Generator: Adobe Illustrator 23.1.0, SVG Export Plug-In . SVG Version: 6.00 Build 0)  -->
<svg version="1.1" id="Layer_5" xmlns="http://www.w3.org/2000/svg" xmlns:xlink="http://www.w3.org/1999/xlink" x="0px" y="0px"
	 viewBox="0 0 512 512" style="enable-background:new 0 0 512 512;" xml:space="preserve">
<style type="text/css">
	.st0{fill:#FFFFFF;}
</style>
<g>
	<path class="st0" d="M480,216H344c-4.4,0-8-3.6-8-8s3.6-8,8-8h48c13.2,0,24-10.8,24-24c0-11.1-8.2-24-31.1-24h-71.2
		c-17.2,0-32-12.7-33.5-28.8c-0.9-9.2,2-17.9,8.2-24.7c6-6.6,14.4-10.4,23.2-10.5l9.8,0l-1.2-10.2c-0.1-0.6-0.2-1.2-0.2-1.8
		c0-18.6,18-33.5,37.8-26.1l6.1,2.3l3.5-5.5C376.2,32.5,391.4,24,408,24c26.5,0,48,21.5,48,48c0,2.3-0.2,4.7-0.6,7.5l-1.2,7.7
		l7.7,1.4c15.7,2.9,27,17.1,26.2,33.1c-0.9,16.7-16,30.3-33.7,30.3H432v16h22.2c26.5,0,48.4-20,49.7-45.4
		c1.1-21.5-12.3-40.8-32-47.8c0.1-1,0.1-1.9,0.1-2.8c0-35.3-28.7-64-64-64c-20.1,0-38.6,9.3-50.7,25.1c-3.1-0.7-6.2-1.1-9.3-1.1
		c-9.3,0-17.9,3-25.1,8H48C25.9,40,8,57.9,8,80v256c0,22.1,17.9,40,40,40h127.7c-1.3,12.8-8,24.3-18.4,32H136c-22.1,0-40,17.9-40,40
		c0,13.2,10.8,24,24,24h240c13.2,0,24-10.8,24-24c0-22.1-17.9-40-40-40h-21.3c-10.4-7.7-17-19.2-18.4-32H392v58.3l37,59.2
		c4.1,6.6,11.2,10.5,19,10.5s14.9-3.9,19-10.5l37-59.2V240C504,226.8,493.2,216,480,216L480,216z M472,411.1V264h8
		c2.8,0,5.5-0.5,8-1.4v156.4L472,411.1z M424,411.1l-16,8V272c0-4.4,3.6-8,8-8h8V411.1z M440,264h16v148.7l-8,8l-8-8V264z M48,56
		h260.9c-2.6,5.1-4.3,10.7-4.8,16.6c-10.6,1.8-20.4,7-27.6,15.1c-9.1,10-13.5,23.5-12.3,37c2.3,24.3,24,43.3,49.4,43.3h71.2
		c4.5,0,15.1,0.8,15.1,8c0,4.4-3.6,8-8,8h-48c-13.2,0-24,10.8-24,24s10.8,24,24,24h136c4.4,0,8,3.6,8,8s-3.6,8-8,8h-64
		c-13.2,0-24,10.8-24,24v24H24V80C24,66.8,34.8,56,48,56L48,56z M368,448c0,4.4-3.6,8-8,8H120c-4.4,0-8-3.6-8-8
		c0-13.2,10.8-24,24-24h208C357.2,424,368,434.8,368,448z M300.2,408H179.8c6.9-9.2,11-20.3,11.9-32h96.6
		C289.2,387.7,293.4,398.8,300.2,408z M48,360c-13.2,0-24-10.8-24-24v-24h368v48H48z M453.5,485c-2.4,3.8-8.5,3.8-10.9,0l-31.1-49.8
		l19-9.5l17.6,17.6l17.6-17.6l19,9.5L453.5,485z"/>
	<path class="st0" d="M120,328h16v16h-16V328z"/>
	<path class="st0" d="M56,328h16v16H56V328z"/>
	<path class="st0" d="M88,328h16v16H88V328z"/>
	<path class="st0" d="M152,72H40v96h112V72z M136,152H56V88h80V152z"/>
	<path class="st0" d="M125.7,109.7l-11.3-11.3L88,124.7l-10.3-10.3l-11.3,11.3L88,147.3L125.7,109.7z"/>
	<path class="st0" d="M152,184H40v96h112V184z M136,264H56v-64h80V264z"/>
	<path class="st0" d="M125.7,221.7l-11.3-11.3L88,236.7l-10.3-10.3l-11.3,11.3L88,259.3L125.7,221.7z"/>
	<path class="st0" d="M168,72h80v16h-80V72z"/>
	<path class="st0" d="M168,104h80v16h-80V104z"/>
	<path class="st0" d="M168,136h80v16h-80V136z"/>
	<path class="st0" d="M168,184h80v16h-80V184z"/>
	<path class="st0" d="M168,216h80v16h-80V216z"/>
	<path class="st0" d="M168,248h80v16h-80V248z"/>
	<path class="st0" d="M360,264h16v16h-16V264z"/>
	<path class="st0" d="M296,264h16v16h-16V264z"/>
	<path class="st0" d="M328,264h16v16h-16V264z"/>
</g>
</svg>
