<?xml version="1.0" encoding="utf-8"?>
<!-- Generator: Adobe Illustrator 23.1.0, SVG Export Plug-In . SVG Version: 6.00 Build 0)  -->
<svg version="1.1" id="Layer_1" xmlns="http://www.w3.org/2000/svg" xmlns:xlink="http://www.w3.org/1999/xlink" x="0px" y="0px"
	 viewBox="0 0 512 512" style="enable-background:new 0 0 512 512;" xml:space="preserve">
<style type="text/css">
	.st0{fill:#FFFFFF;}
</style>
<g id="Page-1">
	<g>
		<path id="Shape" class="st0" d="M194.2,70.6c0-34.1,27.7-61.8,61.8-61.8s61.8,27.7,61.8,61.8s-27.7,61.8-61.8,61.8
			C221.9,132.4,194.2,104.7,194.2,70.6z M326.6,150.1c34.1,0,61.8,27.7,61.8,61.8v70.6c0,14.6-11.9,26.5-26.5,26.5
			s-26.5-11.9-26.5-26.5v-70.6c0-4.9-4-8.8-8.8-8.8s-8.8,4-8.8,8.8v264.8c0,14.6-11.9,26.5-26.5,26.5c-14.6,0-26.5-11.9-26.5-26.5
			V361.9c0-4.9-4-8.8-8.8-8.8s-8.8,4-8.8,8.8v114.8c0,9.5-5,18.2-13.2,22.9c-8.2,4.7-18.3,4.7-26.5,0c-8.2-4.7-13.2-13.5-13.2-22.9
			V211.9c0-4.9-4-8.8-8.8-8.8s-8.8,4-8.8,8.8v70.6c0,14.6-11.9,26.5-26.5,26.5s-26.5-11.9-26.5-26.5v-70.6
			c0-34.1,27.7-61.8,61.8-61.8H326.6z"/>
		<path class="st0" d="M70.6,17.7v476.7c0,4.9-4,8.8-8.8,8.8H17.7c-4.9,0-8.8-4-8.8-8.8v-17.7h26.5c4.9,0,8.8-4,8.8-8.8
			s-4-8.8-8.8-8.8H8.8v-17.7h17.7c4.9,0,8.8-4,8.8-8.8s-4-8.8-8.8-8.8H8.8v-17.7h26.5c4.9,0,8.8-4,8.8-8.8c0-4.9-4-8.8-8.8-8.8H8.8
			v-17.7h17.7c4.9,0,8.8-4,8.8-8.8s-4-8.8-8.8-8.8H8.8v-17.7h26.5c4.9,0,8.8-4,8.8-8.8s-4-8.8-8.8-8.8H8.8v-17.7h17.7
			c4.9,0,8.8-4,8.8-8.8s-4-8.8-8.8-8.8H8.8v-17.7h26.5c4.9,0,8.8-4,8.8-8.8s-4-8.8-8.8-8.8H8.8v-17.7h17.7c4.9,0,8.8-4,8.8-8.8
			s-4-8.8-8.8-8.8H8.8v-17.7h26.5c4.9,0,8.8-4,8.8-8.8c0-4.9-4-8.8-8.8-8.8H8.8v-17.7h17.7c4.9,0,8.8-4,8.8-8.8s-4-8.8-8.8-8.8H8.8
			v-17.7h26.5c4.9,0,8.8-4,8.8-8.8s-4-8.8-8.8-8.8H8.8V88.3h17.7c4.9,0,8.8-4,8.8-8.8c0-4.9-4-8.8-8.8-8.8H8.8V53h26.5
			c4.9,0,8.8-4,8.8-8.8s-4-8.8-8.8-8.8H8.8V17.7c0-4.9,4-8.8,8.8-8.8h44.1C66.7,8.8,70.6,12.8,70.6,17.7z"/>
		<path class="st0" d="M492.8,450.2h-16.2V61.8h16.2c3.4,0,6.6-2,8-5.1c1.4-3.1,0.9-6.8-1.3-9.4L465.7,7.9c-1.7-2-4.1-3.1-6.7-3.1
			s-5,1.1-6.7,3.1l-33.8,39.4c-2.2,2.6-2.8,6.3-1.3,9.4c1.4,3.1,4.6,5.1,8,5.1h16.2v388.4h-16.2c-3.4,0-6.6,2-8,5.1
			c-1.4,3.1-0.9,6.8,1.3,9.4l33.8,39.4c1.7,2,4.1,3.1,6.7,3.1s5-1.1,6.7-3.1l33.8-39.4c2.2-2.6,2.8-6.3,1.3-9.4
			C499.4,452.2,496.3,450.2,492.8,450.2z"/>
	</g>
</g>
</svg>
