<?xml version="1.0" encoding="utf-8"?>
<!-- Generator: Adobe Illustrator 23.1.0, SVG Export Plug-In . SVG Version: 6.00 Build 0)  -->
<svg version="1.1" id="Layer_1" xmlns="http://www.w3.org/2000/svg" xmlns:xlink="http://www.w3.org/1999/xlink" x="0px" y="0px"
	 viewBox="0 0 512 512" style="enable-background:new 0 0 512 512;" xml:space="preserve">
<style type="text/css">
	.st0{fill:#FFFFFF;}
</style>
<g id="Outline">
	<path class="st0" d="M400,304c-7.6,0-15.1,1-22.4,2.8L359.7,248H416c0,8.8-7.2,16-16,16h-16v16h16c17.7,0,32-14.3,32-32v-40
		c0-4.2-3.2-7.7-7.4-8l-96.6-7.4v-48.8c6.9,5.3,15.3,8.2,24,8.2c22.1,0,40-17.9,40-40V72c0-30.9-25.1-56-56-56s-56,25.1-56,56
		c0,0.4,0.1,0.7,0.2,1.1c0,0.3,0,0.6,0,0.8l5.5,22.2c-32.6,0.6-64.8,7.9-94.4,21.5l-15.1,7c-29.4,13.6-48.2,43-48.3,75.3
		c0,0,0.1,16.5,0.1,16.8c0.7,12.6,6.2,24.5,15.6,33l33.5,30.4l-22.1,34.1c-47.3-23.8-105-4.8-128.9,42.5s-4.8,105,42.5,128.9
		c47.3,23.8,105,4.8,128.9-42.5c4.3-8.6,7.3-17.8,8.9-27.2h10.6c3.6,14.1,16.3,24,30.9,24c1.1-0.1,2.1-0.2,3.2-0.3l5.1,18.5
		c1,3.5,4.1,5.9,7.7,5.9h56c2.3,0,4.5-1.1,6-2.9c33.8,40.9,94.3,46.6,135.1,12.9s46.6-94.3,12.9-135.1
		C455.8,316.8,428.6,304,400,304z M300,112c6.6,0,12,5.4,12,12v28h-24v-28C288,117.4,293.4,112,300,112z M312,96h-9.8l-4-16H312V96z
		 M272.6,282l1.6-2h33c-1.1,2.9-2.6,5.6-4.6,8l-22.9,25.8L272.6,282z M287,264l12.3-15.4c4.7,4,7.9,9.4,9.3,15.4H287z M274.9,222.9
		l-56.5-14.5l-2.7-3.5l-0.6-5l0.5-7.9H272v16C272,213.1,273,218.1,274.9,222.9z M284.3,241.8L266.6,264h-4.9l-5.4-6.9L234.5,229
		L284.3,241.8z M238.8,395l1.4,5h-6C235.3,398,236.9,396.3,238.8,395z M231.7,309.9c-0.4-1.5-1.2-2.8-2.3-3.8l-6.4-5.8l26.2-26.2
		l7.3,9.4L286,416h-24.8L231.7,309.9z M284,333.1l30.7-34.6c4.6-5.3,7.8-11.7,9.4-18.5h19l-55.8,67.8L284,333.1z M347.8,264h-23
		c-0.1-0.9-0.2-1.8-0.4-2.7c-1-4.7-2.7-9.1-5.1-13.3H343L347.8,264z M416,215.4V232H312c-13.2,0-24-10.8-24-24v-40h24v32
		c0,4.2,3.2,7.7,7.4,8L416,215.4z M376,112c0,13.3-10.7,24-24,24s-24-10.7-24-24V80h16v16h16V80h16V112z M336,32
		c19,0,35.4,13.4,39.2,32h-78.4C300.6,45.4,317,32,336,32z M183,139.2l15.1-7c24.1-11,50-17.7,76.4-19.5c-1.6,3.6-2.5,7.5-2.5,11.4
		v52h-64c-4.2,0-7.7,3.3-8,7.5l-0.5,8.5h-55C147.3,168.9,161.9,148.9,183,139.2z M144,214.3V208h55.9l0.1,1c0.2,1.4,0.7,2.8,1.6,3.9
		l37.7,48.4l-14.1,14.1l-14.1,14.1L154.5,238C147.8,231.9,144,223.3,144,214.3z M112,480c-44.2,0.1-80.1-35.6-80.2-79.8
		c-0.1-44.2,35.6-80.1,79.8-80.2c12,0,24,2.7,34.8,7.9l-8.8,13.5c-32.4-14.2-70.1,0.6-84.3,32.9s0.6,70.1,32.9,84.3
		s70.1-0.6,84.3-32.9c1.4-3.1,2.5-6.4,3.3-9.7h16.5C182.7,453.2,150,479.9,112,480z M192,400h-16c0-19.7-9.1-38.3-24.7-50.4
		l8.7-13.4C180.1,351.2,192,374.9,192,400z M97,411.8c1.4,2.6,4.1,4.2,7,4.2h53.2c-8.8,25.1-36.2,38.2-61.3,29.5
		s-38.2-36.2-29.5-61.3s36.2-38.2,61.3-29.5c0.3,0.1,0.7,0.2,1,0.4l-31.5,48.6C95.7,406.1,95.6,409.2,97,411.8z M118.7,400
		l23.9-36.9c11,9.1,17.4,22.6,17.4,36.9H118.7z M168.7,322.7l20.4-31.6l1.3,1.2l39.7,89.2c-6.5,4.3-11.1,10.9-13,18.5H208
		C208,369.5,193.4,340.8,168.7,322.7z M234.2,416h10.4l2.2,7.9C241.5,423.5,236.9,420.5,234.2,416z M312,448h-41.9l-4.4-16h27.9
		l18.4,12.3V448z M303.1,419.1l-11.4-51.5l64-77.8l6.7,21.9c-42.8,18.1-66.4,64.4-55.9,109.7L303.1,419.1z M400,480
		c-44.2,0-80-35.7-80-79.9c0-31.4,18.4-60,47-72.9l4.7,15.5c-31,15.5-43.6,53.3-28,84.3c15.5,31,53.3,43.6,84.3,28
		s43.6-53.3,28-84.3c-12.8-25.6-41.3-39.3-69.2-33.3l-4.7-15.3c43.1-9.8,85.9,17.1,95.8,60.1c9.8,43.1-17.1,85.9-60.1,95.8
		C412,479.3,406,480,400,480z M391.6,352.8c26.1-4.7,51,12.7,55.7,38.8c4.7,26.1-12.7,51-38.8,55.7c-26.1,4.7-51-12.7-55.7-38.8
		c-3.6-20.1,5.9-40.3,23.7-50.3l15.9,52.1l15.3-4.7L391.6,352.8z"/>
</g>
</svg>
