<?xml version="1.0" encoding="utf-8"?>
<!-- Generator: Adobe Illustrator 23.1.0, SVG Export Plug-In . SVG Version: 6.00 Build 0)  -->
<svg version="1.1" id="Layer_1" xmlns="http://www.w3.org/2000/svg" xmlns:xlink="http://www.w3.org/1999/xlink" x="0px" y="0px"
	 viewBox="0 0 512 512" style="enable-background:new 0 0 512 512;" xml:space="preserve">
<style type="text/css">
	.st0{fill:#FFFFFF;}
</style>
<path class="st0" d="M262.4,512c-8.3,0-15-6.7-15-15V15c0-8.3,6.7-15,15-15c8.3,0,15,6.7,15,15v482C277.4,505.3,270.7,512,262.4,512
	z"/>
<path class="st0" d="M126.9,135c-27.2,0-49.4-22.2-49.4-49.4s22.2-49.4,49.4-49.4s49.4,22.2,49.4,49.4S154.2,135,126.9,135z"/>
<path class="st0" d="M217.5,259.9l-41.9-94.8c-1.9-4.3-4.4-8.3-7.3-11.9c-12.1,7.4-26.3,11.7-41.5,11.7s-29.4-4.3-41.5-11.7
	c-2.9,3.6-5.3,7.6-7.3,11.9l-41.9,94.8c-2,4.6-1.6,10,1.2,14.3c2.8,4.3,7.5,6.8,12.6,6.8h11.9l-9.1,48.9c-0.8,4.4,0.4,8.9,3.2,12.3
	c2.9,3.4,7.1,5.4,11.5,5.4h118.7c4.5,0,8.7-2,11.5-5.4c2.8-3.4,4-8,3.2-12.3l-9.1-48.9h11.9c5.1,0,9.8-2.6,12.6-6.8
	C219.2,269.9,219.6,264.6,217.5,259.9z"/>
<path class="st0" d="M396.5,135c-27.2,0-49.4-22.2-49.4-49.4s22.2-49.4,49.4-49.4s49.4,22.2,49.4,49.4S423.7,135,396.5,135z"/>
<path class="st0" d="M461.5,148.9c-2.7-2.7-5.7-5.2-8.9-7.2C438.2,156,418.4,165,396.5,165c-21.3,0-40.6-8.4-54.8-22.1
	c-14,10-23.2,26.3-23.2,44.7l-0.2,92.4c0,4,1.6,7.8,4.4,10.6c2.8,2.8,6.6,4.4,10.6,4.4h15.5l0,27.6c0,4,1.6,7.8,4.4,10.6
	c2.8,2.8,6.6,4.4,10.6,4.4h68.8c8.3,0,15-6.7,15-15l0.1-27.6h14.8c8.3,0,15-6.7,15-15l0.2-92.2C477.6,173.2,471.9,159.3,461.5,148.9
	z"/>
<path class="st0" d="M79.1,377.6v83.3c0,8.3,6.7,15,15,15c8.3,0,15-6.7,15-15v-83.3H79.1z"/>
<path class="st0" d="M147.9,377.6v83.3c0,8.3,6.7,15,15,15c8.3,0,15-6.7,15-15v-83.3H147.9z"/>
<path class="st0" d="M432.5,367.6h-15v93.3c0,8.3,6.7,15,15,15s15-6.7,15-15V365C442.8,366.7,437.7,367.6,432.5,367.6z"/>
<path class="st0" d="M363.7,367.6c-5.2,0-10.2-0.9-15-2.6v95.8c0,8.3,6.7,15,15,15s15-6.7,15-15v-93.3H363.7z"/>
</svg>
